<?xml version="1.0" encoding="UTF-8"?>
<svg width="78px" height="78px" viewBox="0 0 78 78" version="1.1" xmlns="http://www.w3.org/2000/svg" xmlns:xlink="http://www.w3.org/1999/xlink">
    <!-- Generator: Sketch 53.1 (72631) - https://sketchapp.com -->
    <title>Oval 22 Copy 9 + lotus</title>
    <desc>Created with Sketch.</desc>
    <defs>
        <circle id="path-1" cx="39" cy="39" r="39"></circle>
    </defs>
    <g id="Homepage" stroke="none" stroke-width="1" fill="none" fill-rule="evenodd">
        <g id="homepage-desktop" transform="translate(-781.000000, -2524.000000)">
            <g id="about" transform="translate(181.000000, 2524.000000)">
                <g id="Group" transform="translate(600.000000, 0.000000)">
                    <g id="Oval-22-Copy-9-+-lotus">
                        <mask id="mask-2" fill="white">
                            <use xlink:href="#path-1"></use>
                        </mask>
                        <use id="Mask" fill="#C1E7E8" xlink:href="#path-1"></use>
                        <polygon id="Path-149" fill-opacity="0.2" fill="#4DE3E8" mask="url(#mask-2)" points="24.1434375 62.8216875 58.9122489 97.5904989 93.9895972 66.2571507 48.5734139 20.8409675 39.61425 48.082125"></polygon>
                        <g id="lotus" mask="url(#mask-2)" fill="#51A8A8">
                            <g transform="translate(20.280000, 7.800000)" id="Stroke-245">
                                <path d="M22.0238126,25.5030306 C21.4072727,25.392648 20.7955952,24.5032932 20.6682029,24.0796756 C20.5913785,23.8129176 20.7683663,22.7996244 20.7683663,22.7996244 C21.0129401,22.41619 21.1062962,22.3726179 21.5983612,22.3963405 C22.0943159,22.4229679 22.7536441,22.5798274 22.9476499,22.1930041 C23.1387383,21.8095697 22.9175036,21.30607 22.9948142,21.2097272 C23.0755284,21.1162893 23.1056747,21.0194624 23.2058381,20.9729855 C23.3060015,20.9298976 23.1922237,20.7497996 23.1922237,20.7497996 L23.0983812,20.6229564 C23.0983812,20.6229564 23.3560832,20.4631921 23.4100548,20.3431267 C23.4669437,20.2230614 23.3030841,20.066686 23.275369,20.0400586 C23.2525162,20.0163361 23.2661307,19.7931501 23.2661307,19.7931501 C23.2661307,19.7931501 23.9118443,19.7031011 24.0795937,19.3661436 L23.1455456,17.7162138 C23.1455456,17.7162138 23.1119957,17.3463351 23.2593234,16.4661789 C23.4367974,15.4131867 22.2518545,13.8533058 21.2069459,13.4529267 C20.1625235,13.0564207 18.2443455,12.8129011 17.1833912,13.2297408 C16.0577684,13.6698189 15.0206395,14.3534166 14.7021587,16.286565 C14.3744396,18.2560236 14.9666679,19.3564609 15.5263188,20.0729798 C16.0849973,20.7928875 16.8449751,23.1462646 16.4000744,24.1130809 C16.4000744,24.1130809 15.9843477,24.9695146 15.8472307,25.1394457 C15.5491717,25.5161022 14.4444567,25.2396615 14.1264622,24.9428872 C13.8055503,24.6495018 12.3522083,22.4094121 12.1985596,22.1794483 C12.041021,21.9460956 12.2150914,20.6762112 12.2651731,19.7331175 C12.3118512,18.7900237 11.5081127,15.8595585 11.5859096,15.4727352 C11.6593303,15.086396 12.6434602,14.4134492 13.2629174,13.2200581 C13.8784848,12.0261828 18.716475,6.92631154 18.716475,6.92631154 C18.8769309,7.10302057 19.941775,8.50313711 21.5380686,10.1061059 C23.1586738,11.7332815 25.7566016,15.4068929 25.7298589,15.9065196 C25.7060336,16.4066303 25.8465542,16.9198128 25.3578928,18.3063735 C24.8794423,19.6696959 25.1439516,22.1431382 24.9669638,22.3561574 C24.7890035,22.5696606 23.6944994,24.5860802 23.2860661,24.9564429 C22.8776327,25.3229326 22.6666089,25.6192229 22.0238126,25.5030306 L22.0238126,25.5030306 Z M37.0113713,50.6557466 C36.5528562,49.4560616 36.442482,49.4623554 34.3069591,48.2457258 C32.1709499,47.0290962 29.7932844,47.4958017 29.5662149,47.4522296 C29.3420628,47.4091416 29.1616714,47.1961225 28.7731735,47.2188768 C28.381272,47.2392105 27.6310189,46.8354424 27.1661828,46.4723417 C26.6969707,46.1092409 26.3692516,45.2358625 26.1752457,44.7459186 C25.9977717,44.3058404 24.7792789,41.7626827 24.5648514,40.9430433 C24.3504239,40.1190466 24.7019683,37.4291962 24.8862496,36.7489874 C25.0734482,36.0726517 25.850444,30.6459898 26.3288945,29.5494255 C26.824363,28.4097732 27.9592242,24.7293839 28.2976404,23.7630518 C28.632653,22.7996244 28.6793311,16.6196495 28.6963492,15.9529965 C28.7162846,15.2834387 28.8461081,14.6627784 28.7026702,14.059547 C28.4182255,12.8729337 20.4070973,6.99941582 20.2631731,6.45282814 C20.1226526,5.90333566 19.690394,3.81962142 19.4997918,3.38632118 C19.3057859,2.95302094 18.9240952,1.13654887 18.9104808,0.859624018 C18.893949,0.583183305 18.4855156,0.409863208 18.4855156,0.409863208 C18.4855156,0.409863208 18.0367252,0.443268478 18.0231107,0.720193325 C18.0099825,0.996634038 17.6380165,2.81310611 17.4474142,3.2497953 C17.2602156,3.68309554 16.8420577,5.76971458 16.7010509,6.3196912 C16.5605304,6.86966782 8.58586942,12.7862737 8.30823199,13.9733711 C8.16430786,14.5799915 8.30142477,15.2001676 8.32476382,15.8663364 C8.34518548,16.5363784 8.42492723,22.7129644 8.77015065,23.6763917 C9.11148423,24.6398191 10.2701707,28.3129464 10.7690429,29.4496938 C11.2543006,30.5462581 12.0648463,35.9661422 12.2515587,36.642962 C12.4426471,37.3192977 12.8112096,40.0091481 12.6001857,40.8321765 C12.3920792,41.655689 11.1872008,44.2061088 11.0131304,44.6457028 C10.8191246,45.1395198 10.4977264,46.012414 10.0324042,46.3789037 C9.56708189,46.7458776 8.82071859,47.1525504 8.4293033,47.1327009 C8.0408054,47.1128514 7.86333139,47.3253864 7.63577567,47.3728315 C7.41113733,47.4159195 5.03104066,46.9622856 2.90183875,48.192471 C0.773123074,49.4226564 0.661776366,49.4158785 0.21006854,50.6155634 C-0.241639286,51.8186373 1.54574281,55.1320527 4.04642457,55.4254382 C6.54759255,55.7154346 11.7288612,54.5225276 13.0183436,54.4760507 L24.6256302,56.0155979 C25.9141401,56.0552969 30.704966,55.7895072 33.2022441,55.485955 C35.6995223,55.1790138 37.4703726,51.8525267 37.0113713,50.6557466 L37.0113713,50.6557466 Z"></path>
                            </g>
                        </g>
                    </g>
                </g>
            </g>
        </g>
    </g>
</svg>