<?xml version="1.0" encoding="UTF-8"?>
<svg width="78px" height="78px" viewBox="0 0 78 78" version="1.1" xmlns="http://www.w3.org/2000/svg" xmlns:xlink="http://www.w3.org/1999/xlink">
    <!-- Generator: Sketch 53.1 (72631) - https://sketchapp.com -->
    <title>woman-icon</title>
    <desc>Created with Sketch.</desc>
    <defs>
        <circle id="path-1" cx="39" cy="39" r="39"></circle>
    </defs>
    <g id="Homepage" stroke="none" stroke-width="1" fill="none" fill-rule="evenodd">
        <g id="homepage-desktop" transform="translate(-181.000000, -2524.000000)">
            <g id="about" transform="translate(181.000000, 2524.000000)">
                <g id="Group-2">
                    <g id="woman-icon">
                        <mask id="mask-2" fill="white">
                            <use xlink:href="#path-1"></use>
                        </mask>
                        <use id="Mask" fill="#E8C1CC" xlink:href="#path-1"></use>
                        <polygon id="Path-148" fill-opacity="0.2" fill="#E84C77" mask="url(#mask-2)" points="16.5871875 60.4621875 50.3829586 94.2579586 85.4901911 59.1507262 40.6014751 14.2620101 49.0254375 40.9524375 44.0919375 53.308125"></polygon>
                        <g id="glarus" mask="url(#mask-2)" fill="#E84D79">
                            <g transform="translate(15.600000, 9.984000)" id="Stroke-243">
                                <path d="M26.3253779,36.6561318 C22.0005457,36.9231221 20.5725714,38.4565061 19.2557741,39.778905 C17.9332013,41.1046835 18.621921,41.9520036 18.1444857,42.1089148 C17.6670504,42.2696884 7.21882185,45.1843733 7.5306949,44.9173829 C7.85219367,44.6508754 8.43021764,42.3759051 8.58759802,41.3716738 C8.74738484,40.3630972 8.90813422,32.576442 8.85326766,31.6272503 C8.79791982,30.6703337 9.06407074,27.6532944 9.54150603,27.3356097 C10.0141285,27.017925 10.6734897,26.83108 10.6479816,26.1199104 C10.6479816,25.5096468 10.2258941,25.1620282 9.90920821,23.5224275 C9.80765696,22.992792 9.77348568,22.086087 9.78696168,21.0905461 C9.85434166,22.7856693 10.1204926,24.3147081 10.1204926,24.3147081 C11.1759518,26.2763388 12.1264909,26.9672306 14.1868744,27.4925209 C16.2438889,28.0260188 17.3248563,27.9622887 19.356844,27.017925 C21.5226291,26.0093484 21.3666926,23.8401122 22.3133813,23.946329 C23.2672893,24.0525457 24.1624805,26.0648708 25.6409898,28.0260188 C27.1185365,29.9837871 28.5806821,36.5166016 26.3253779,36.6561318 L26.3253779,36.6561318 Z M10.4617241,14.4688958 C10.217231,14.087481 10.1204926,14.0449943 10.3312957,13.6210928 C10.54258,13.1976741 10.8207631,13.0451082 10.9102822,12.7192158 C11.1759518,11.7656788 10.9309775,12.1384031 11.2101231,11.816856 C11.2645084,11.676843 10.9646675,12.0833635 13.3426995,10.3887232 C15.4844203,8.8592016 20.1721418,5.30045681 20.8892573,5.35984165 C21.5784582,5.41053602 24.057079,16.0027626 23.6349915,15.8415062 C23.2129041,15.684595 22.0005457,15.6295554 21.2569595,15.1549596 C20.5225177,14.6803637 20.4671699,13.5114964 20.2010189,13.0364177 C19.9396809,12.5623046 19.4117106,12.0283239 18.832724,12.0833635 C18.2498872,12.1384031 18.4611716,12.5623046 17.8783348,12.5067822 C17.2993482,12.4522254 17.4057123,12.612999 17.4057123,12.612999 L17.354696,12.9862061 C17.354696,12.9862061 17.0331973,12.8249498 16.8772608,12.9306837 C16.7213242,13.0364177 16.3497718,13.1426345 15.977738,12.9306837 C15.6100358,12.7192158 15.0830281,12.4015311 14.7658609,12.5623046 C14.449175,12.7192158 14.2884257,14.6253241 13.5535026,14.6803637 C12.8108789,14.7315409 11.8641902,15.4726443 10.4872322,17.0108563 C10.1883538,17.3454392 10.0020963,17.8876275 9.89188193,18.522997 C9.98043848,17.3579921 10.1036476,16.421836 10.2258941,16.2398191 C10.808731,15.3669103 10.7533831,14.917903 10.4617241,14.4688958 L10.4617241,14.4688958 Z M45.3852492,41.9520036 C41.584537,41.6343189 36.8328045,41.528585 36.8328045,41.528585 C36.8328045,41.528585 39.7893418,35.3849101 39.8952246,33.372585 C40.0006262,31.3602599 38.8388028,30.4072057 38.8388028,29.6656195 C38.8388028,28.9240333 38.8388028,26.9117082 38.7334013,25.8529201 C38.6279997,24.7936492 37.5715779,23.6286442 36.9391686,22.992792 C36.3053155,22.3574226 31.4486628,19.7092452 30.9202112,18.8624078 C30.3917597,18.0150877 28.3857614,9.54140298 27.6469881,8.05871335 C26.9082147,6.57554092 24.6909321,2.65662471 24.1624805,2.23320602 C23.6349915,1.80930452 22.3133813,-0.147980971 21.2059432,0.00893017441 C20.0994677,0.165358517 8.56112732,8.17700022 7.26935684,14.2019054 C5.95159693,20.3450975 5.63106074,22.8614694 5.58004447,23.7343782 C5.52950949,24.607287 5.58004447,25.8529201 5.3687601,26.5940235 C5.15747574,27.3356097 1.778851,41.1046835 1.14547919,43.4351761 C0.511626087,45.7651859 -1.38897065,50.3199544 1.778851,51.5906932 C4.94667265,52.8614321 15.927203,52.3322794 18.5665731,51.5906932 C21.2059432,50.8486242 22.8962182,50.1075208 23.8457946,50.1075208 C24.7958523,50.1075208 25.3243039,50.0022696 26.4861272,50.4256883 C27.6469881,50.8486242 28.7024473,50.5309395 28.7024473,50.5309395 C28.7024473,50.5309395 29.1254973,51.4299197 29.915287,52.4380134 C30.7132584,53.4504524 32.3987205,53.0777281 34.1934344,52.1198459 C35.5150446,51.4125387 36.1994327,51.4844765 37.5715779,51.3787425 C38.9451669,51.2725257 49.925216,49.8448757 50.4536676,46.8794964 C50.9811566,43.9131516 49.1864426,42.2696884 45.3852492,41.9520036 L45.3852492,41.9520036 Z"></path>
                            </g>
                        </g>
                    </g>
                </g>
            </g>
        </g>
    </g>
</svg>