<?xml version="1.0" encoding="UTF-8"?>
<svg width="25px" height="23px" viewBox="0 0 25 23" version="1.1" xmlns="http://www.w3.org/2000/svg" xmlns:xlink="http://www.w3.org/1999/xlink">
    <!-- Generator: Sketch 55 (78076) - https://sketchapp.com -->
    <title>icon-map</title>
    <desc>Created with Sketch.</desc>
    <g id="Contact-Us" stroke="none" stroke-width="1" fill="none" fill-rule="evenodd">
        <g id="contact-us" transform="translate(-231.000000, -952.000000)" fill-rule="nonzero">
            <g id="contact-info" transform="translate(231.000000, 815.000000)">
                <g id="address" transform="translate(0.000000, 130.000000)">
                    <g id="icon-map" transform="translate(0.000000, 7.000000)">
                        <path d="M16.2500107,19.31395 L9.3125192,22.8634202 C8.95871017,23.0455266 8.54132961,23.0455266 8.18752058,22.8634202 L0.687529762,19.0330567 C0.263150535,18.8146423 -0.00327647774,18.3693273 3.06033145e-05,17.8839476 L3.06033145e-05,1.28570592 C-0.00301063797,0.840908916 0.220798798,0.426554095 0.59079582,0.191978954 C0.960792841,-0.0425961879 1.42364216,-0.0635775031 1.81252838,0.136596877 L8.75001989,3.69883491 L15.6875114,0.162132634 C16.0413204,-0.0199738177 16.458701,-0.0199738177 16.81251,0.162132634 L24.3125008,3.99249611 C24.7288738,4.20675336 24.9939057,4.63989244 25,5.11606939 L25,21.7143111 C24.9986889,22.1568371 24.7731351,22.5671142 24.403898,22.7986065 C24.034661,23.0300988 23.5743996,23.0497919 23.1875022,22.8506523 L16.2500107,19.31395 Z" id="Path" fill="#FF8F4A"></path>
                        <path d="M9,23 L9,3.67998022 L15.475,0.1405548 C15.6375427,0.0493425759 15.8173674,0.00119929356 16,0 L16,19.2943407 L9.525,22.8720993 C9.36147385,22.95889 9.18169768,23.0026448 9,23 Z" id="Path" fill="#dd7a3c"></path>
                    </g>
                </g>
            </g>
        </g>
    </g>
</svg>