<?xml version="1.0" encoding="UTF-8"?>
<svg width="24px" height="23px" viewBox="0 0 24 23" version="1.1" xmlns="http://www.w3.org/2000/svg" xmlns:xlink="http://www.w3.org/1999/xlink">
    <!-- Generator: Sketch 53.2 (72643) - https://sketchapp.com -->
    <title>facebook</title>
    <desc>Created with Sketch.</desc>
    <defs>
        <path d="M23.3018174,2.06096576 L23.3018174,21.7595447 C23.3018174,22.4367607 22.7374473,22.9805107 22.0459668,22.9805107 L16.2395643,22.9805107 L16.2395643,14.4090336 L19.1986942,14.4090336 L19.6410383,11.0674428 L16.2344799,11.0674428 L16.2344799,8.93198825 C16.2344799,7.96312473 16.5090384,7.30568151 17.9377592,7.30568151 L19.7579798,7.30568151 L19.7579798,4.3150566 C19.4427461,4.27551115 18.3648501,4.18159069 17.1039149,4.18159069 C14.4803566,4.18159069 12.6804735,5.73869292 12.6804735,8.60079513 L12.6804735,11.0674428 L9.71117498,11.0674428 L9.71117498,14.4090336 L12.6804735,14.4090336 L12.6804735,22.9854538 L1.77948687,22.9854538 C1.08800637,22.9854538 0.523636255,22.4367607 0.523636255,21.7644879 L0.523636255,2.06096576 C0.523636255,1.38869305 1.08800637,0.83999988 1.77948687,0.83999988 L22.0408824,0.83999988 C22.7374473,0.83999988 23.3018174,1.38869305 23.3018174,2.06096576 Z" id="path-1"></path>
    </defs>
    <g id="Symbols" stroke="none" stroke-width="1" fill="none" fill-rule="evenodd">
        <g id="global/footer/red" transform="translate(-669.000000, -223.000000)">
            <g id="footer">
                <g id="top-footer" transform="translate(394.000000, 36.000000)">
                    <g id="links" transform="translate(275.000000, 12.000000)">
                        <g id="Social-Media" transform="translate(0.000000, 174.000000)">
                            <g id="facebook" transform="translate(0.000000, 1.000000)">
                                <g fill="#000000" id="path-1">
                                    <path d="M23.3018174,2.06096576 L23.3018174,21.7595447 C23.3018174,22.4367607 22.7374473,22.9805107 22.0459668,22.9805107 L16.2395643,22.9805107 L16.2395643,14.4090336 L19.1986942,14.4090336 L19.6410383,11.0674428 L16.2344799,11.0674428 L16.2344799,8.93198825 C16.2344799,7.96312473 16.5090384,7.30568151 17.9377592,7.30568151 L19.7579798,7.30568151 L19.7579798,4.3150566 C19.4427461,4.27551115 18.3648501,4.18159069 17.1039149,4.18159069 C14.4803566,4.18159069 12.6804735,5.73869292 12.6804735,8.60079513 L12.6804735,11.0674428 L9.71117498,11.0674428 L9.71117498,14.4090336 L12.6804735,14.4090336 L12.6804735,22.9854538 L1.77948687,22.9854538 C1.08800637,22.9854538 0.523636255,22.4367607 0.523636255,21.7644879 L0.523636255,2.06096576 C0.523636255,1.38869305 1.08800637,0.83999988 1.77948687,0.83999988 L22.0408824,0.83999988 C22.7374473,0.83999988 23.3018174,1.38869305 23.3018174,2.06096576 Z"></path>
                                </g>
                                <g id="Colors/5th-Clipped">
                                    <mask id="mask-2" fill="white">
                                        <use xlink:href="#path-1"></use>
                                    </mask>
                                    <use id="path-1" fill="#611616" xlink:href="#path-1"></use>
                                </g>
                            </g>
                        </g>
                    </g>
                </g>
            </g>
        </g>
    </g>
</svg>