<?xml version="1.0" encoding="UTF-8"?>
<svg width="24px" height="24px" viewBox="0 0 24 24" version="1.1" xmlns="http://www.w3.org/2000/svg" xmlns:xlink="http://www.w3.org/1999/xlink">
    <!-- Generator: Sketch 53.2 (72643) - https://sketchapp.com -->
    <title>instagram</title>
    <desc>Created with Sketch.</desc>
    <defs>
        <path d="M12.0026771,6.015625 C8.59743447,6.015625 5.85075293,8.6875 5.85075293,12 C5.85075293,15.3125 8.59743447,17.9843749 12.0026771,17.9843749 C15.4079197,17.9843749 18.1546012,15.3125 18.1546012,12 C18.1546012,8.6875 15.4079197,6.015625 12.0026771,6.015625 Z M12.0026771,15.8906249 C9.80211933,15.8906249 8.00312325,14.1458333 8.00312325,12 C8.00312325,9.85416667 9.7967652,8.109375 12.0026771,8.109375 C14.2085889,8.109375 16.0022309,9.85416667 16.0022309,12 C16.0022309,14.1458333 14.2032348,15.8906249 12.0026771,15.8906249 Z M19.8411601,5.77083333 C19.8411601,6.546875 19.1986615,7.16666667 18.4062465,7.16666667 C17.6084775,7.16666667 16.9713329,6.54166667 16.9713329,5.77083333 C16.9713329,5 17.6138316,4.375 18.4062465,4.375 C19.1986615,4.375 19.8411601,5 19.8411601,5.77083333 Z M23.915672,7.1875 C23.8246515,5.31770833 23.3856107,3.66145833 21.9774679,2.296875 C20.5746793,0.932291667 18.872058,0.505208333 16.9499164,0.411458333 C14.9688789,0.302083333 9.03112103,0.302083333 7.05008365,0.411458333 C5.13329615,0.5 3.43067484,0.927083333 2.02253207,2.29166667 C0.614389294,3.65625 0.180702734,5.3125 0.0843279475,7.18229167 C-0.0281093192,9.109375 -0.0281093192,14.8854167 0.0843279475,16.8125 C0.175348574,18.6822917 0.614389294,20.3385416 2.02253207,21.7031251 C3.43067484,23.0677084 5.127942,23.4947917 7.05008365,23.5885417 C9.03112103,23.6979167 14.9688789,23.6979167 16.9499164,23.5885417 C18.872058,23.5 20.5746793,23.0729167 21.9774679,21.7031251 C23.3802565,20.3385417 23.8192973,18.6822917 23.915672,16.8125 C24.0281093,14.8854167 24.0281093,9.11458333 23.915672,7.1875 Z M21.356386,18.8802083 C20.9387619,19.9010416 20.1302844,20.6875 19.0755159,21.0989583 C17.4960401,21.7083333 13.7481316,21.5677083 12.0026771,21.5677083 C10.2572225,21.5677083 6.50395984,21.7031249 4.92983825,21.0989583 C3.88042387,20.6927083 3.07194645,19.90625 2.64896821,18.8802083 C2.02253207,17.34375 2.16709425,13.6979167 2.16709425,12 C2.16709425,10.3020833 2.02788623,6.65104167 2.64896821,5.11979167 C3.06659231,4.09895833 3.87506972,3.3125 4.92983825,2.90104167 C6.509314,2.29166667 10.2572225,2.43229167 12.0026771,2.43229167 C13.7481316,2.43229167 17.5013943,2.296875 19.0755159,2.90104167 C20.1249303,3.30729167 20.9334077,4.09375 21.356386,5.11979167 C21.9828221,6.65625 21.8382599,10.3020833 21.8382599,12 C21.8382599,13.6979167 21.9828221,17.3489583 21.356386,18.8802083 Z" id="path-1"></path>
    </defs>
    <g id="Symbols" stroke="none" stroke-width="1" fill="none" fill-rule="evenodd">
        <g id="global/footer/red" transform="translate(-703.000000, -223.000000)">
            <g id="footer">
                <g id="top-footer" transform="translate(394.000000, 36.000000)">
                    <g id="links" transform="translate(275.000000, 12.000000)">
                        <g id="Social-Media" transform="translate(0.000000, 174.000000)">
                            <g id="instagram" transform="translate(34.000000, 1.000000)">
                                <g fill="#000000" fill-rule="nonzero" id="path-1">
                                    <path d="M12.0026771,6.015625 C8.59743447,6.015625 5.85075293,8.6875 5.85075293,12 C5.85075293,15.3125 8.59743447,17.9843749 12.0026771,17.9843749 C15.4079197,17.9843749 18.1546012,15.3125 18.1546012,12 C18.1546012,8.6875 15.4079197,6.015625 12.0026771,6.015625 Z M12.0026771,15.8906249 C9.80211933,15.8906249 8.00312325,14.1458333 8.00312325,12 C8.00312325,9.85416667 9.7967652,8.109375 12.0026771,8.109375 C14.2085889,8.109375 16.0022309,9.85416667 16.0022309,12 C16.0022309,14.1458333 14.2032348,15.8906249 12.0026771,15.8906249 Z M19.8411601,5.77083333 C19.8411601,6.546875 19.1986615,7.16666667 18.4062465,7.16666667 C17.6084775,7.16666667 16.9713329,6.54166667 16.9713329,5.77083333 C16.9713329,5 17.6138316,4.375 18.4062465,4.375 C19.1986615,4.375 19.8411601,5 19.8411601,5.77083333 Z M23.915672,7.1875 C23.8246515,5.31770833 23.3856107,3.66145833 21.9774679,2.296875 C20.5746793,0.932291667 18.872058,0.505208333 16.9499164,0.411458333 C14.9688789,0.302083333 9.03112103,0.302083333 7.05008365,0.411458333 C5.13329615,0.5 3.43067484,0.927083333 2.02253207,2.29166667 C0.614389294,3.65625 0.180702734,5.3125 0.0843279475,7.18229167 C-0.0281093192,9.109375 -0.0281093192,14.8854167 0.0843279475,16.8125 C0.175348574,18.6822917 0.614389294,20.3385416 2.02253207,21.7031251 C3.43067484,23.0677084 5.127942,23.4947917 7.05008365,23.5885417 C9.03112103,23.6979167 14.9688789,23.6979167 16.9499164,23.5885417 C18.872058,23.5 20.5746793,23.0729167 21.9774679,21.7031251 C23.3802565,20.3385417 23.8192973,18.6822917 23.915672,16.8125 C24.0281093,14.8854167 24.0281093,9.11458333 23.915672,7.1875 Z M21.356386,18.8802083 C20.9387619,19.9010416 20.1302844,20.6875 19.0755159,21.0989583 C17.4960401,21.7083333 13.7481316,21.5677083 12.0026771,21.5677083 C10.2572225,21.5677083 6.50395984,21.7031249 4.92983825,21.0989583 C3.88042387,20.6927083 3.07194645,19.90625 2.64896821,18.8802083 C2.02253207,17.34375 2.16709425,13.6979167 2.16709425,12 C2.16709425,10.3020833 2.02788623,6.65104167 2.64896821,5.11979167 C3.06659231,4.09895833 3.87506972,3.3125 4.92983825,2.90104167 C6.509314,2.29166667 10.2572225,2.43229167 12.0026771,2.43229167 C13.7481316,2.43229167 17.5013943,2.296875 19.0755159,2.90104167 C20.1249303,3.30729167 20.9334077,4.09375 21.356386,5.11979167 C21.9828221,6.65625 21.8382599,10.3020833 21.8382599,12 C21.8382599,13.6979167 21.9828221,17.3489583 21.356386,18.8802083 Z"></path>
                                </g>
                                <g id="Colors/5th-Clipped">
                                    <mask id="mask-2" fill="white">
                                        <use xlink:href="#path-1"></use>
                                    </mask>
                                    <use id="path-1" fill="#611616" xlink:href="#path-1"></use>
                                </g>
                            </g>
                        </g>
                    </g>
                </g>
            </g>
        </g>
    </g>
</svg>