<?xml version="1.0" encoding="UTF-8"?>
<svg width="14px" height="14px" viewBox="0 0 14 14" version="1.1" xmlns="http://www.w3.org/2000/svg" xmlns:xlink="http://www.w3.org/1999/xlink">
    <!-- Generator: Sketch 53.2 (72643) - https://sketchapp.com -->
    <title>instagram</title>
    <desc>Created with Sketch.</desc>
    <defs>
        <path d="M13.9995042,5.56301569 L13.9995042,11.2940968 C13.9995042,12.7868551 12.7858635,14 11.2940968,14 L2.70540742,14 C1.21314494,14 1.77635684e-15,12.7868551 1.77635684e-15,11.2940968 L1.77635684e-15,5.56301569 L1.77635684e-15,2.70540742 C1.77635684e-15,1.21314494 1.21314494,0 2.70540742,0 L11.293601,0 C12.7858635,0 13.9995042,1.21314494 13.9995042,2.70540742 L13.9995042,5.56301569 Z M6.99925635,9.46322462 C8.35716562,9.46322462 9.46421615,8.35815716 9.46421615,6.99925635 C9.46421615,6.46283509 9.28871419,5.96756259 8.99819399,5.56301569 C8.55051524,4.94231382 7.82272743,4.53528808 7.00074365,4.53528808 C6.1782641,4.53528808 5.45097206,4.94181805 5.00230178,5.56251992 C4.71079004,5.96706682 4.53677538,6.46233932 4.53627961,6.99876058 C4.53479231,8.35766139 5.6408513,9.46322462 6.99925635,9.46322462 Z M12.3798293,3.9849853 L12.3798293,1.91961472 L12.3798293,1.61223839 L12.0709657,1.61322993 L10.0065866,1.61967492 L10.0145189,3.9929176 L12.3798293,3.9849853 Z M10.8285704,6.99925635 C10.8285704,9.10974185 9.11122915,10.8280746 6.99975212,10.8280746 C4.88827508,10.8280746 3.17142958,9.10974185 3.17142958,6.99925635 C3.17142958,6.49158965 3.27256631,6.00623252 3.45302596,5.56301569 L1.36336273,5.56301569 L1.36336273,11.2940968 C1.36336273,12.0347746 1.96472963,12.6346542 2.70491165,12.6346542 L11.2931053,12.6346542 C12.0322958,12.6346542 12.6346542,12.0347746 12.6346542,11.2940968 L12.6346542,5.56301569 L10.5439994,5.56301569 C10.7259464,6.00623252 10.8285704,6.49158965 10.8285704,6.99925635 Z" id="path-1"></path>
    </defs>
    <g id="Symbols" stroke="none" stroke-width="1" fill="none" fill-rule="evenodd">
        <g id="global/cards/teacher-card" transform="translate(-220.000000, -339.000000)">
            <g id="teacher-card">
                <g id="social" transform="translate(141.000000, 338.000000)">
                    <g id="instagram" transform="translate(79.000000, 1.000000)">
                        <mask id="mask-2" fill="white">
                            <use xlink:href="#path-1"></use>
                        </mask>
                        <use id="Combined-Shape2" fill="#000000" fill-rule="nonzero" xlink:href="#path-1"></use>
                        <g id="↪🎨" mask="url(#mask-2)" fill="#4B5098">
                            <g transform="translate(-5.000000, -5.000000)" id="Atoms-/-Colors-/-Black">
                                <rect x="0" y="0" width="24" height="24"></rect>
                            </g>
                        </g>
                    </g>
                </g>
            </g>
        </g>
    </g>
</svg>