<?xml version="1.0" encoding="UTF-8"?>
<svg width="21px" height="16px" viewBox="0 0 21 16" version="1.1" xmlns="http://www.w3.org/2000/svg" xmlns:xlink="http://www.w3.org/1999/xlink">
    <defs>
        <path d="M16.5075976,2.49288288 L16.4703904,2.46807808 C15.7014414,1.73633634 14.7960661,1.38906907 13.7542643,1.43867868 L13.7170571,1.36426426 L13.7418619,1.35186186 C14.6844444,1.14102102 15.2425526,0.917777778 15.4161862,0.66972973 C15.4657958,0.471291291 15.4037838,0.35966967 15.1929429,0.334864865 C14.7216517,0.396876877 14.2751652,0.496096096 13.8906907,0.657327327 C14.3867868,0.334864865 14.5728228,0.111621622 14.4612012,0 C13.9775075,0.0124024024 13.4442042,0.26045045 12.8984985,0.756546547 C13.0969369,0.409279279 13.1837538,0.210840841 13.1341441,0.186036036 C12.8612913,0.35966967 12.638048,0.558108108 12.4396096,0.768948949 C12.0179279,1.24024024 11.6830631,1.67432432 11.4226126,2.0712012 L11.4102102,2.09600601 C10.7528829,3.17501502 10.2815916,4.25402402 10.0087387,5.35783784 L9.90951952,5.44465465 L9.88471471,5.45705706 C9.48783784,4.96096096 9.00414414,4.53927928 8.43363363,4.20441441 C7.7639039,3.75792793 6.97015015,3.34864865 6.05237237,2.93936937 C5.06018018,2.41846847 4.04318318,1.99678679 3.02618619,1.66192192 C3.01378378,2.81534535 3.58429429,3.72072072 4.68810811,4.39045045 L4.68810811,4.40285285 C4.30363363,4.40285285 3.91915916,4.46486486 3.54708709,4.57648649 C3.6215015,5.64309309 4.37804805,6.37483483 5.80432432,6.77171171 L5.79192192,6.79651652 C5.23381381,6.75930931 4.77492492,6.95774775 4.41525526,7.36702703 C4.88654655,8.2848048 5.71750751,8.71888889 6.92054054,8.69408408 C6.68489489,8.81810811 6.49885886,8.94213213 6.37483483,9.09096096 C6.15159159,9.32660661 6.07717718,9.59945946 6.15159159,9.90951952 C6.41204204,10.3808108 6.87093093,10.5916517 7.55306306,10.5544444 L7.59027027,10.6040541 L7.57786787,10.6288589 C6.39963964,11.8442943 4.97336336,12.39 3.31144144,12.2783784 L3.28663664,12.2907808 C2.26963964,12.2783784 1.17822823,11.7946847 0,10.8272973 C1.17822823,12.5264264 2.75333333,13.7542643 4.70051051,14.5356156 C6.92054054,15.2673574 9.15297297,15.3293694 11.373003,14.6968468 L11.4102102,14.6968468 C13.5682282,14.0767267 15.3913814,12.7868769 16.9044745,10.8521021 C17.599009,9.84750751 18.0330931,8.88012012 18.2067267,7.94993994 C19.3353453,7.98714715 20.1415015,7.66468468 20.65,6.97015015 L20.6375976,6.94534535 C20.2531231,7.08177177 19.5213814,7.04456456 18.4423724,6.82132132 L18.4423724,6.6972973 C19.633003,6.56087087 20.3399399,6.1763964 20.5631832,5.54387387 C19.7322222,5.86633634 18.9136637,5.87873874 18.1075075,5.56867868 C17.9586787,4.45246246 17.4253754,3.42306306 16.5075976,2.49288288" id="path-1"></path>
    </defs>
    <g id="Symbols" stroke="none" stroke-width="1" fill="none" fill-rule="evenodd">
        <g id="global/cards/teacher-card" transform="translate(-141.000000, -338.000000)">
            <g id="teacher-card">
                <g id="social" transform="translate(141.000000, 338.000000)">
                    <g id="Twitter">
                        <mask id="mask-2" fill="white">
                            <use xlink:href="#path-1"></use>
                        </mask>
                        <use id="Mask" fill="#C2D1D9" xlink:href="#path-1"></use>
                        <g id="↪🎨" mask="url(#mask-2)" fill="#4B5098">
                            <g transform="translate(-2.000000, -4.000000)" id="Atoms-/-Colors-/-Black">
                                <rect x="0" y="0" width="24" height="24"></rect>
                            </g>
                        </g>
                    </g>
                </g>
            </g>
        </g>
    </g>
</svg>