<?xml version="1.0" encoding="UTF-8"?>
<svg width="24px" height="24px" viewBox="0 0 24 24" version="1.1" xmlns="http://www.w3.org/2000/svg" xmlns:xlink="http://www.w3.org/1999/xlink">
    <!-- Generator: Sketch 53.2 (72643) - https://sketchapp.com -->
    <title>twitter</title>
    <desc>Created with Sketch.</desc>
    <defs>
        <path d="M21.4285715,0.333333333 L2.57142857,0.333333333 C1.15178572,0.333333333 0,1.453125 0,2.83333333 L0,21.1666667 C0,22.5468749 1.15178572,23.6666667 2.57142857,23.6666667 L21.4285715,23.6666667 C22.8482143,23.6666667 24,22.5468749 24,21.1666667 L24,2.83333333 C24,1.453125 22.8482143,0.333333333 21.4285715,0.333333333 Z M18.8089285,8.60416667 C18.8196428,8.75 18.8196428,8.90104167 18.8196428,9.046875 C18.8196428,13.5625 15.2839285,18.7656251 8.82321428,18.7656251 C6.83035715,18.7656251 4.98214285,18.2031251 3.42857143,17.2343749 C3.7125,17.2656251 3.98571428,17.2760417 4.275,17.2760417 C5.91964285,17.2760417 7.43035715,16.7343751 8.63571428,15.8177083 C7.09285715,15.7864584 5.79642857,14.8020833 5.35178572,13.4479167 C5.89285715,13.5260417 6.38035715,13.5260417 6.9375,13.3854167 C5.33035715,13.0677083 4.125,11.6927084 4.125,10.03125 L4.125,9.98958333 C4.59107143,10.2447917 5.1375,10.4010416 5.71071428,10.4218749 C4.73188295,9.78887333 4.14450396,8.72106391 4.14642857,7.578125 C4.14642857,6.94270833 4.31785715,6.359375 4.62321428,5.85416667 C6.35357143,7.92708333 8.95178572,9.28125 11.8660715,9.42708333 C11.3678572,7.109375 13.1517857,5.22916667 15.2946428,5.22916667 C16.3071428,5.22916667 17.2178572,5.640625 17.8607143,6.30729167 C18.6535715,6.16145833 19.4142857,5.875 20.0892857,5.484375 C19.8267857,6.27604167 19.275,6.94270833 18.5464285,7.36458333 C19.2535715,7.29166667 19.9392857,7.09895833 20.5714285,6.83333333 C20.0946428,7.515625 19.4946428,8.11979167 18.8089285,8.60416667 Z" id="path-1"></path>
    </defs>
    <g id="Symbols" stroke="none" stroke-width="1" fill="none" fill-rule="evenodd">
        <g id="global/footer/pink" transform="translate(-737.000000, -223.000000)">
            <g id="footer">
                <g id="top-footer" transform="translate(394.000000, 36.000000)">
                    <g id="links" transform="translate(275.000000, 12.000000)">
                        <g id="Social-Media" transform="translate(0.000000, 174.000000)">
                            <g id="twitter" transform="translate(68.000000, 1.000000)">
                                <g id="twitter-square" fill="#000000" fill-rule="nonzero">
                                    <path d="M21.4285715,0.333333333 L2.57142857,0.333333333 C1.15178572,0.333333333 0,1.453125 0,2.83333333 L0,21.1666667 C0,22.5468749 1.15178572,23.6666667 2.57142857,23.6666667 L21.4285715,23.6666667 C22.8482143,23.6666667 24,22.5468749 24,21.1666667 L24,2.83333333 C24,1.453125 22.8482143,0.333333333 21.4285715,0.333333333 Z M18.8089285,8.60416667 C18.8196428,8.75 18.8196428,8.90104167 18.8196428,9.046875 C18.8196428,13.5625 15.2839285,18.7656251 8.82321428,18.7656251 C6.83035715,18.7656251 4.98214285,18.2031251 3.42857143,17.2343749 C3.7125,17.2656251 3.98571428,17.2760417 4.275,17.2760417 C5.91964285,17.2760417 7.43035715,16.7343751 8.63571428,15.8177083 C7.09285715,15.7864584 5.79642857,14.8020833 5.35178572,13.4479167 C5.89285715,13.5260417 6.38035715,13.5260417 6.9375,13.3854167 C5.33035715,13.0677083 4.125,11.6927084 4.125,10.03125 L4.125,9.98958333 C4.59107143,10.2447917 5.1375,10.4010416 5.71071428,10.4218749 C4.73188295,9.78887333 4.14450396,8.72106391 4.14642857,7.578125 C4.14642857,6.94270833 4.31785715,6.359375 4.62321428,5.85416667 C6.35357143,7.92708333 8.95178572,9.28125 11.8660715,9.42708333 C11.3678572,7.109375 13.1517857,5.22916667 15.2946428,5.22916667 C16.3071428,5.22916667 17.2178572,5.640625 17.8607143,6.30729167 C18.6535715,6.16145833 19.4142857,5.875 20.0892857,5.484375 C19.8267857,6.27604167 19.275,6.94270833 18.5464285,7.36458333 C19.2535715,7.29166667 19.9392857,7.09895833 20.5714285,6.83333333 C20.0946428,7.515625 19.4946428,8.11979167 18.8089285,8.60416667 Z" id="path-1"></path>
                                </g>
                                <g id="Colors/5th-Clipped">
                                    <mask id="mask-2" fill="white">
                                        <use xlink:href="#path-1"></use>
                                    </mask>
                                    <use id="path-1" fill="#61162B" xlink:href="#path-1"></use>
                                </g>
                            </g>
                        </g>
                    </g>
                </g>
            </g>
        </g>
    </g>
</svg>