<?xml version="1.0" encoding="UTF-8"?>
<svg width="24px" height="26px" viewBox="0 0 24 26" version="1.1" xmlns="http://www.w3.org/2000/svg" xmlns:xlink="http://www.w3.org/1999/xlink">
    <!-- Generator: Sketch 53.2 (72643) - https://sketchapp.com -->
    <title>youtube</title>
    <desc>Created with Sketch.</desc>
    <g id="Symbols" stroke="none" stroke-width="1" fill="none" fill-rule="evenodd">
        <g id="global/footer/pink" transform="translate(-771.000000, -222.000000)" fill="#61162B">
            <g id="footer">
                <g id="top-footer" transform="translate(394.000000, 36.000000)">
                    <g id="links" transform="translate(275.000000, 12.000000)">
                        <g id="Social-Media" transform="translate(0.000000, 174.000000)">
                            <g id="youtube" transform="translate(102.000000, 0.000000)">
                                <g id="g3294">
                                    <path d="M20.0664789,16.4491166 C19.8123544,16.4491166 19.6286677,16.5674556 19.5610769,16.7685499 C19.5340828,16.857868 19.5016055,16.7633199 19.5016055,17.3928546 L19.5016055,18.4864133 L20.6018276,18.4864133 L20.6018276,17.3928546 C20.6018276,16.8065947 20.5666086,16.8934518 20.5396145,16.8028004 C20.4692821,16.5806842 20.2936093,16.4491166 20.0664789,16.4491166 Z M14.7630794,16.8264888 C14.5279351,16.8264888 14.3468846,16.9618505 14.2792938,17.1839668 C14.246711,17.2850779 14.2114921,17.4850442 14.2114921,18.1591866 L14.2114921,20.1676677 C14.2114921,20.8195575 14.2520888,21.0285478 14.2873077,21.136222 C14.3629123,21.3715668 14.5414322,21.5069286 14.7766819,21.5069286 C15.0199455,21.5069286 15.1982545,21.3663369 15.2711175,21.1204298 C15.3009588,21.0114226 15.3389192,20.7944336 15.3389192,20.0846048 L15.3389192,18.159084 C15.3389192,17.5243195 15.2927339,17.3112274 15.2604676,17.2075525 C15.1820158,16.9670804 15.0009653,16.8264888 14.7630794,16.8264888 Z M23.8344813,13.9335418 C23.6318144,12.1328204 21.9910768,10.6633251 20.1449307,10.5370901 C14.7252243,10.3123075 9.31637894,10.3123075 3.89393107,10.5370901 C2.0531627,10.6632226 0.409683527,12.1328204 0.207016585,13.9335418 C0.00434964172,16.7791122 0.00434964172,19.5774085 0.207016585,22.4244146 C0.409683527,24.2238028 2.0531627,25.6946311 3.89393107,25.8207636 C9.31637894,26.0468793 14.7251189,26.0442131 20.1449307,25.8207636 C21.9910768,25.6946311 23.6318144,24.2238028 23.8344813,22.4244146 C24.0373591,19.5774085 24.0373591,16.7791122 23.8344813,13.9335418 Z M7.00521662,14.4815517 L5.4671833,14.4815517 L5.4671833,22.8725439 L3.8562869,22.8725439 L3.8562869,14.4815517 L2.32363133,14.4815517 L2.32363133,12.8899232 L7.00521662,12.8899232 L7.00521662,14.4815517 Z M9.90561046,22.8831062 L9.9272268,22.4651256 L9.4460774,22.3493503 C9.32439282,22.5821315 9.17581962,22.7555381 9.00826619,22.8685446 C8.84334885,22.9764238 8.65692055,23.0288252 8.44065108,23.0288252 C8.19190434,23.0288252 7.98364875,22.9775518 7.82695617,22.8776713 C7.66488588,22.7737914 7.54847371,22.6384297 7.47297443,22.4662536 C7.38650885,22.2730555 7.33230968,22.0719613 7.31354031,21.8643041 C7.28907685,21.6407521 7.27832137,21.182163 7.27832137,20.4986887 L7.27832137,15.3003877 L8.80275221,15.3003877 L8.80275221,20.0689152 C8.80275221,20.9298979 8.8299572,21.149348 8.85695138,21.2453317 C8.91642284,21.4687812 9.10548725,21.6028098 9.36235337,21.6028098 C9.63008041,21.6028098 9.82473347,21.4634487 9.87861627,21.229437 C9.90286885,21.1322227 9.9272268,20.9101063 9.9272268,20.0085151 L9.9272268,15.3003877 L11.4492323,15.3003877 L11.4492323,22.8831062 L9.90561046,22.8831062 Z M16.8606085,21.3675675 C16.8606085,21.3399824 16.8280257,21.7961105 16.7687651,22.087856 C16.7119298,22.3466841 16.5875037,22.5650061 16.3848367,22.7581018 C16.1901837,22.9408401 15.9630533,23.0289277 15.6981733,23.0289277 C15.5062618,23.0289277 15.3358613,22.9764238 15.1685188,22.8686472 C14.9928459,22.7555381 14.8305648,22.5781322 14.6791445,22.3415568 L14.3411905,21.8105695 L14.2169753,22.4282088 L14.1277681,22.8724414 L12.6869559,22.8724414 L12.6869559,12.8898207 L14.2113867,12.8898207 L14.2113867,16.506953 L14.6764029,15.8090197 C14.8224454,15.5922358 14.9845157,15.4291865 15.1548108,15.3266397 C15.3251058,15.2240929 15.5007787,15.1753832 15.6980678,15.1753832 C15.930576,15.1753832 16.1332429,15.2227597 16.2981603,15.3121805 C16.4602305,15.4014988 16.5792789,15.5237346 16.6631084,15.681554 C16.7549517,15.8563963 16.811787,16.0246756 16.8279203,16.1876223 C16.9201854,17.0091245 16.8606085,17.4179785 16.8606085,17.4035195 L16.8606085,21.3675675 Z M19.5016055,19.3106843 L19.5016055,20.9997322 C19.5016055,21.5201571 19.5448383,21.6911026 19.5827988,21.783087 C19.6639921,21.9775157 19.8423011,22.0892917 20.0719621,22.0892917 C20.3343114,22.0892917 20.5343422,21.9552631 20.6208078,21.7239175 C20.6830209,21.5568688 20.7152873,21.2756856 20.7152873,20.8418102 L20.7152873,20.0282041 L22.131847,20.0282041 L22.131847,20.3805548 C22.131847,20.8563719 22.104642,21.2256427 22.0560314,21.4741136 C22.010057,21.710689 21.8993389,21.9681839 21.7236661,22.2442399 C21.5560072,22.5046061 21.3451154,22.7057003 21.0912018,22.8330634 C20.8397134,22.9632978 20.5073481,23.0289277 20.1125588,23.0289277 C19.7233581,23.0289277 19.3800264,22.9619647 19.0855161,22.8318328 C18.8017613,22.7015984 18.5772671,22.5256282 18.4204691,22.3035119 C18.2583988,22.0695001 18.1419865,21.8105695 18.0771374,21.5306169 C18.0122881,21.2375382 17.9772801,20.7985354 17.9772801,20.4987913 L17.9772801,18.1723126 C17.9772801,17.2299077 18.0528848,16.7013817 18.1989273,16.3283165 C18.336745,15.9708385 18.5582868,15.7065755 18.8719882,15.5199403 C19.1854788,15.330639 19.5586517,15.2347577 19.9722103,15.2347577 C20.4829901,15.2347577 20.9047735,15.350328 21.229125,15.5750079 C21.5588542,15.8063534 21.7859845,16.1047645 21.9211662,16.487264 C22.0589839,16.8880168 22.1320579,17.7463333 22.1320579,18.4903101 L22.1320579,19.3106843 L19.5016055,19.3106843 Z" id="path3047" fill-rule="nonzero"></path>
                                    <g id="g3289" transform="translate(4.180765, 0.000000)">
                                        <path d="M2.43788749,4.05592894 L1.15935644,0.0575277141 L0.00250991089,0.0575277141 L1.72422991,5.7633327 L1.73245469,5.8080431 L1.73245469,5.8540866 L1.73245469,9.86161448 L3.08943746,9.86161448 L3.08943746,5.8540866 L3.08943746,5.80670999 L3.10019294,5.76076904 L4.59225185,0.0576302609 L3.43255828,0.0576302609 C3.09217905,1.56383726 2.66238172,3.01231043 2.43788749,4.05592894 Z" id="path3051"></path>
                                        <path d="M8.69293586,3.43552096 C8.53866858,3.19884301 8.31174913,3.00308122 8.01428636,2.85059416 C7.71429285,2.69154412 7.33858926,2.61401876 6.90615583,2.61401876 C6.39790676,2.61401876 5.97897035,2.73492141 5.66263277,2.97293247 C5.35188383,3.20817476 5.14362825,3.50658587 5.02479077,3.8903159 C4.89772851,4.29783677 4.83551545,4.88666034 4.83551545,5.63709763 L4.83551545,7.01071168 C4.83551545,7.70597875 4.87073437,8.23050554 4.94096131,8.56429527 C5.00581052,8.8770629 5.11663411,9.14522271 5.26531277,9.36210913 C5.41135529,9.57243257 5.62224701,9.73281573 5.8951409,9.84059238 C6.19249822,9.95493207 6.56018793,10.0154347 6.9926214,10.0154347 C7.37654981,10.0154347 7.71429285,9.94703591 8.00353087,9.81167419 C8.2820134,9.68420856 8.50355515,9.49224099 8.67659179,9.22285066 C8.85490072,8.95202462 8.97110209,8.66027902 9.02530126,8.35140813 C9.08213655,8.01628529 9.11176684,7.46950589 9.11176684,6.72552905 L9.11176684,5.45056505 C9.11176684,4.87753368 9.07918407,4.45288749 9.01992349,4.18349712 C8.96308821,3.93236007 8.85237005,3.67999247 8.69293586,3.43552096 Z M7.54136164,7.93332494 C7.54136164,8.48533427 7.49812889,8.68119858 7.46037921,8.79030835 C7.37654981,9.01898766 7.20087699,9.15045263 6.9737466,9.15045263 C6.7468271,9.15045263 6.57094341,9.01119411 6.48732485,8.76662002 C6.44946978,8.6522804 6.40349538,8.44728942 6.40349538,7.84923662 L6.40349538,4.80646877 C6.40349538,4.16247503 6.44672819,3.95604838 6.48996099,3.83904251 C6.57379045,3.6090301 6.7520994,3.47766768 6.97912431,3.47766768 C7.20899631,3.47766768 7.38466913,3.61302942 7.46575699,3.85093794 C7.50361203,3.96404703 7.54136164,4.16770492 7.54136164,4.80646877 L7.54136164,7.93332494 Z" id="path3053" fill-rule="nonzero"></path>
                                        <path d="M13.0259172,2.63114407 L13.0259172,7.38531503 C13.0259172,8.35397183 12.998923,8.32905299 12.971718,8.44472572 C12.9420877,8.57485759 12.8312641,8.87716544 12.4420635,8.87716544 C12.0744792,8.87716544 11.9582778,8.5879836 11.9258005,8.46574782 C11.8961703,8.34617828 11.8635875,8.37899327 11.8635875,7.44848379 L11.8635875,2.63124662 L10.2931823,2.63124662 L10.2931823,7.39854358 C10.2931823,8.11749897 10.3065739,8.60121208 10.3281903,8.83255762 C10.3471705,9.04021483 10.3984172,9.24130907 10.4822467,9.43194353 C10.5580623,9.6027864 10.671522,9.74081435 10.8338032,9.84725795 C11.0012512,9.95893135 11.2230038,10.0155372 11.4932616,10.0155372 C11.7284059,10.0155372 11.9258005,9.95770083 12.1014733,9.83813129 C12.2745099,9.71979232 12.4178109,9.54505257 12.5392845,9.30314478 L13.0259172,9.49511229 L13.0069369,9.86181955 L14.5964278,9.86181955 L14.5964278,2.63134916 L13.0259172,2.63134916 L13.0259172,2.63114407 Z" id="path3055"></path>
                                    </g>
                                </g>
                            </g>
                        </g>
                    </g>
                </g>
            </g>
        </g>
    </g>
</svg>